<svg width="29" height="29" viewBox="0 0 29 29" fill="none" xmlns="http://www.w3.org/2000/svg">
<path fill-rule="evenodd" clip-rule="evenodd" d="M14.4687 9.94678C13.2695 9.94678 12.1195 10.4231 11.2716 11.271C10.4237 12.1189 9.94736 13.269 9.94736 14.4681C9.94736 15.6672 10.4237 16.8172 11.2716 17.6651C12.1195 18.513 13.2695 18.9894 14.4687 18.9894C15.6678 18.9894 16.8178 18.513 17.6657 17.6651C18.5136 16.8172 18.99 15.6672 18.99 14.4681C18.99 13.269 18.5136 12.1189 17.6657 11.271C16.8178 10.4231 15.6678 9.94678 14.4687 9.94678ZM11.7559 14.4681C11.7559 13.7486 12.0417 13.0586 12.5504 12.5499C13.0592 12.0411 13.7492 11.7553 14.4687 11.7553C15.1881 11.7553 15.8781 12.0411 16.3869 12.5499C16.8956 13.0586 17.1814 13.7486 17.1814 14.4681C17.1814 15.1876 16.8956 15.8776 16.3869 16.3863C15.8781 16.8951 15.1881 17.1809 14.4687 17.1809C13.7492 17.1809 13.0592 16.8951 12.5504 16.3863C12.0417 15.8776 11.7559 15.1876 11.7559 14.4681Z" fill="#54565A"/>
<path fill-rule="evenodd" clip-rule="evenodd" d="M14.4382 1.50708C13.9016 1.50708 13.4543 1.50708 13.0878 1.53119C12.7131 1.54628 12.3435 1.6237 11.9942 1.76027C11.5919 1.92677 11.2262 2.1709 10.9182 2.47872C10.6101 2.78655 10.3657 3.15204 10.199 3.55433C10.0242 3.97632 9.97714 4.42242 9.95785 4.9071C9.9557 5.08432 9.90868 5.2581 9.82118 5.41222C9.73368 5.56634 9.60856 5.69578 9.45749 5.78846C9.30175 5.87324 9.12705 5.91716 8.94973 5.91611C8.7724 5.91505 8.59824 5.86906 8.44351 5.78243C8.01429 5.55576 7.60436 5.3737 7.15102 5.31342C6.71932 5.25663 6.28066 5.28544 5.86009 5.39818C5.43952 5.51093 5.04528 5.70541 4.69987 5.97052C4.40736 6.20499 4.15596 6.48656 3.95596 6.80364C3.751 7.10989 3.52674 7.49691 3.25908 7.9611L3.22894 8.01415C2.96007 8.47833 2.73702 8.86536 2.57546 9.19571C2.40666 9.54054 2.27404 9.88054 2.22581 10.2567C2.11079 11.1284 2.34672 12.0101 2.8817 12.7079C3.16021 13.0708 3.52313 13.3348 3.93306 13.5928C4.08574 13.6834 4.21295 13.8112 4.30278 13.9642C4.39261 14.1173 4.44212 14.2907 4.44668 14.4682C4.44212 14.6456 4.39261 14.819 4.30278 14.9721C4.21295 15.1252 4.08574 15.253 3.93306 15.3435C3.52313 15.6015 3.16142 15.8655 2.8817 16.2285C2.61659 16.5739 2.42211 16.9681 2.30937 17.3887C2.19662 17.8093 2.16782 18.2479 2.22461 18.6796C2.27404 19.0558 2.40546 19.3958 2.57425 19.7406C2.73702 20.071 2.96007 20.458 3.22894 20.9222L3.25908 20.9752C3.52674 21.4394 3.751 21.8264 3.95596 22.1327C4.16937 22.4498 4.39845 22.7355 4.69987 22.9646C5.04519 23.2299 5.43939 23.4246 5.85997 23.5376C6.28054 23.6505 6.71924 23.6795 7.15102 23.6229C7.60436 23.5626 8.01429 23.3818 8.44351 23.1539C8.59809 23.0675 8.77203 23.0216 8.94912 23.0206C9.12622 23.0195 9.30069 23.0633 9.45629 23.1479C9.60858 23.2394 9.7348 23.3685 9.82284 23.5228C9.91088 23.6772 9.95779 23.8515 9.95906 24.0292C9.97714 24.5139 10.0242 24.96 10.2002 25.382C10.3667 25.7844 10.6108 26.1501 10.9186 26.4581C11.2265 26.7661 11.592 27.0105 11.9942 27.1773C12.3439 27.3219 12.7056 27.3786 13.0878 27.4039C13.4543 27.4292 13.9016 27.4292 14.4382 27.4292H14.4984C15.035 27.4292 15.4823 27.4292 15.8488 27.4051C16.2322 27.3786 16.5927 27.3219 16.9424 27.1761C17.3448 27.0096 17.7104 26.7654 18.0185 26.4576C18.3265 26.1498 18.5709 25.7843 18.7376 25.382C18.9125 24.96 18.9595 24.5139 18.9788 24.0292C18.9807 23.8518 19.0276 23.6778 19.1151 23.5234C19.2027 23.3691 19.3279 23.2394 19.4791 23.1467C19.635 23.0621 19.8097 23.0184 19.987 23.0196C20.1644 23.0209 20.3385 23.0671 20.4931 23.1539C20.9223 23.3806 21.3323 23.5626 21.7856 23.6217C22.6573 23.7367 23.539 23.5008 24.2367 22.9658C24.5382 22.7343 24.7672 22.4498 24.9806 22.1327C25.1856 21.8264 25.4099 21.4394 25.6775 20.9752L25.7077 20.9222C25.9765 20.458 26.1996 20.071 26.3612 19.7406C26.53 19.3958 26.6626 19.0546 26.7108 18.6796C26.8258 17.8079 26.5899 16.9262 26.0549 16.2285C25.7764 15.8655 25.4135 15.6015 25.0036 15.3435C24.8509 15.253 24.7237 15.1252 24.6338 14.9721C24.544 14.819 24.4945 14.6456 24.4899 14.4682C24.4899 14.133 24.6732 13.8002 25.0036 13.5928C25.4135 13.3348 25.7752 13.0708 26.0549 12.7079C26.32 12.3625 26.5145 11.9682 26.6272 11.5476C26.74 11.1271 26.7688 10.6884 26.712 10.2567C26.6552 9.88609 26.537 9.52751 26.3624 9.19571C26.1564 8.79516 25.9381 8.40111 25.7077 8.01415L25.6775 7.9611C25.4573 7.56814 25.2249 7.18213 24.9806 6.80364C24.7806 6.48698 24.5291 6.20584 24.2367 5.97172C23.8914 5.7064 23.4972 5.5117 23.0767 5.39875C22.6561 5.2858 22.2174 5.2568 21.7856 5.31342C21.3323 5.3737 20.9223 5.55455 20.4931 5.78243C20.3385 5.86885 20.1646 5.91472 19.9875 5.91577C19.8104 5.91683 19.6359 5.87303 19.4803 5.78846C19.3288 5.69607 19.2032 5.56676 19.1153 5.41262C19.0274 5.25848 18.98 5.08455 18.9776 4.9071C18.9595 4.42242 18.9125 3.97632 18.7364 3.55433C18.5699 3.15193 18.3258 2.78627 18.018 2.47824C17.7101 2.17021 17.3447 1.92583 16.9424 1.75907C16.5927 1.61439 16.231 1.55772 15.8488 1.5324C15.4823 1.50708 15.035 1.50708 14.4984 1.50708H14.4382ZM12.6863 3.43014C12.7791 3.39156 12.9202 3.3566 13.2108 3.3361C13.5086 3.3156 13.8944 3.3156 14.4683 3.3156C15.0422 3.3156 15.428 3.3156 15.7258 3.3361C16.0164 3.3566 16.1575 3.39156 16.2503 3.43014C16.6205 3.58326 16.9134 3.87625 17.0666 4.24639C17.1148 4.36214 17.1546 4.54419 17.1702 4.97462C17.2064 5.92952 17.6995 6.84946 18.5749 7.35464C19.4502 7.85982 20.4931 7.82727 21.3383 7.38116C21.7193 7.17981 21.8965 7.12315 22.0219 7.10747C22.4181 7.05513 22.8188 7.16225 23.136 7.40528C23.2155 7.46677 23.3168 7.57166 23.4796 7.8128C23.6472 8.06117 23.8401 8.39514 24.127 8.89188C24.414 9.38862 24.6057 9.7238 24.7371 9.99146C24.8661 10.2531 24.9059 10.393 24.918 10.493C24.9703 10.8892 24.8632 11.2899 24.6202 11.6071C24.543 11.7072 24.4055 11.8325 24.0414 12.0616C23.2312 12.5704 22.6814 13.4578 22.6814 14.4682C22.6814 15.4785 23.2312 16.3659 24.0414 16.8747C24.4055 17.1038 24.543 17.2292 24.6202 17.3292C24.8637 17.6463 24.9698 18.0466 24.918 18.4433C24.9059 18.5434 24.8649 18.6844 24.7371 18.9449C24.6057 19.2137 24.414 19.5477 24.127 20.0444C23.8401 20.5412 23.646 20.8752 23.4796 21.1235C23.3168 21.3647 23.2155 21.4696 23.136 21.531C22.8188 21.7741 22.4181 21.8812 22.0219 21.8289C21.8965 21.8132 21.7205 21.7565 21.3383 21.5552C20.4943 21.1091 19.4502 21.0753 18.5749 21.5805C17.6995 22.0857 17.2064 23.0068 17.1702 23.9617C17.1546 24.3921 17.1148 24.5742 17.0666 24.6899C16.9908 24.873 16.8797 25.0392 16.7397 25.1793C16.5996 25.3194 16.4333 25.4304 16.2503 25.5062C16.1575 25.5448 16.0164 25.5797 15.7258 25.6002C15.428 25.6207 15.0422 25.6207 14.4683 25.6207C13.8944 25.6207 13.5086 25.6207 13.2108 25.6002C12.9202 25.5797 12.7791 25.5448 12.6863 25.5062C12.5033 25.4304 12.337 25.3194 12.1969 25.1793C12.0569 25.0392 11.9458 24.873 11.8701 24.6899C11.8218 24.5742 11.782 24.3921 11.7664 23.9617C11.7302 23.0068 11.2371 22.0869 10.3618 21.5817C9.48643 21.0765 8.44351 21.1091 7.59833 21.5552C7.21734 21.7565 7.0401 21.8132 6.91471 21.8289C6.51856 21.8812 6.11785 21.7741 5.80066 21.531C5.72108 21.4696 5.61981 21.3647 5.45704 21.1235C5.23023 20.7705 5.01431 20.4107 4.80959 20.0444C4.52264 19.5477 4.33093 19.2125 4.19951 18.9449C4.0705 18.6832 4.03072 18.5434 4.01866 18.4433C3.96631 18.0472 4.07343 17.6464 4.31646 17.3292C4.39363 17.2292 4.53108 17.1038 4.89519 16.8747C5.70541 16.3659 6.2552 15.4785 6.2552 14.4682C6.2552 13.4578 5.70541 12.5704 4.89519 12.0616C4.53108 11.8325 4.39363 11.7072 4.31646 11.6071C4.07343 11.2899 3.96631 10.8892 4.01866 10.493C4.03072 10.393 4.07171 10.2519 4.19951 9.99146C4.33093 9.7226 4.52264 9.38862 4.80959 8.89188C5.09654 8.39514 5.29066 8.06117 5.45704 7.8128C5.61981 7.57166 5.72108 7.46677 5.80066 7.40528C6.11785 7.16225 6.51856 7.05513 6.91471 7.10747C7.0401 7.12315 7.21613 7.17981 7.59833 7.38116C8.44231 7.82727 9.48643 7.86102 10.3618 7.35464C11.2371 6.84946 11.7302 5.92952 11.7664 4.97462C11.782 4.54419 11.8218 4.36214 11.8701 4.24639C12.0232 3.87625 12.3162 3.58326 12.6863 3.43014Z" fill="#54565A"/>
</svg>
