<svg width="29" height="29" viewBox="0 0 29 29" fill="none" xmlns="http://www.w3.org/2000/svg">
<path d="M26.5248 26.5249H2.41113" stroke="#54565A" stroke-width="1.80852" stroke-linecap="round"/>
<path d="M25.3191 26.5249V17.4823C25.3191 17.0026 25.1286 16.5426 24.7894 16.2035C24.4502 15.8643 23.9902 15.6738 23.5106 15.6738H19.8935C19.4139 15.6738 18.9539 15.8643 18.6147 16.2035C18.2755 16.5426 18.085 17.0026 18.085 17.4823V26.5249V6.0283C18.085 4.32347 18.085 3.47105 17.5545 2.94176C17.0264 2.41125 16.174 2.41125 14.468 2.41125C12.7619 2.41125 11.9107 2.41125 11.3814 2.94176C10.8509 3.46984 10.8509 4.32226 10.8509 6.0283V26.5249V11.4539C10.8509 10.9742 10.6604 10.5142 10.3212 10.1751C9.98205 9.83589 9.52204 9.64535 9.04239 9.64535H5.42534C4.94569 9.64535 4.48569 9.83589 4.14653 10.1751C3.80736 10.5142 3.61682 10.9742 3.61682 11.4539V26.5249" stroke="#54565A" stroke-width="1.80852"/>
</svg>
